<?xml version="1.0" encoding="utf-8"?>
<!-- Generator: Adobe Illustrator 19.2.1, SVG Export Plug-In . SVG Version: 6.00 Build 0)  -->
<svg version="1.1" id="Layer_1" xmlns="http://www.w3.org/2000/svg" xmlns:xlink="http://www.w3.org/1999/xlink" x="0px" y="0px"
	 viewBox="0 0 50 42.3" style="enable-background:new 0 0 50 42.3;" xml:space="preserve">
<style type="text/css">
	.st0{fill:#EFA41F;}
</style>
<g>
	<path class="st0" d="M42.3,33.7c0,4.8-3.9,8.7-8.7,8.7h-25c-4.8,0-8.7-3.9-8.7-8.7v-25C0,3.9,3.9,0,8.7,0h25c1.2,0,2.4,0.2,3.5,0.8
		c0.3,0.1,0.5,0.4,0.5,0.7c0.1,0.3,0,0.6-0.3,0.9L36,3.8c-0.2,0.2-0.4,0.3-0.7,0.3c-0.1,0-0.2,0-0.3-0.1c-0.4-0.1-0.9-0.2-1.4-0.2
		h-25C6,3.8,3.8,6,3.8,8.7v25c0,2.6,2.2,4.8,4.8,4.8h25c2.6,0,4.8-2.2,4.8-4.8V26c0-0.2,0.1-0.5,0.3-0.7l1.9-1.9
		c0.2-0.2,0.5-0.3,0.7-0.3c0.1,0,0.2,0,0.4,0.1c0.4,0.1,0.6,0.5,0.6,0.9V33.7z M24.8,33.9c-1,1-2.5,1-3.4,0L8.4,21c-1-1-1-2.5,0-3.4
		l3.3-3.3c1-1,2.5-1,3.4,0l7.9,7.9L42.5,2.7c1-1,2.5-1,3.4,0L49.3,6c1,1,1,2.5,0,3.4L24.8,33.9z"/>
</g>
</svg>
